<?xml version="1.0" encoding="UTF-8"?>
<svg width="24px" height="24px" viewBox="0 0 24 24" version="1.1" xmlns="http://www.w3.org/2000/svg" xmlns:xlink="http://www.w3.org/1999/xlink">
    <!-- Generator: Sketch 47.1 (45422) - http://www.bohemiancoding.com/sketch -->
    <title>问号@1x</title>
    <desc>Created with Sketch.</desc>
    <defs></defs>
    <g id="Page-1" stroke="none" stroke-width="1" fill="none" fill-rule="evenodd">
        <g id="问号">
            <g id="problem">
                <rect id="Rectangle-4" x="0" y="0" width="24" height="24"></rect>
                <path d="M12,4 C7.58624762,4 4,7.58623238 4,12.0000057 C4,16.4137771 7.58624762,20.0000057 12,20.0000057 C16.4137905,20.0000057 20,16.4137581 20,12.0000057 C20,7.58623619 16.4137905,4 12,4 Z M12,4.76190476 C16.002019,4.76190476 19.2380952,7.99799619 19.2380952,12.0000057 C19.2380952,16.0020057 16.002019,19.238101 12,19.238101 C7.99801905,19.238101 4.76190476,16.0020057 4.76190476,12.0000057 C4.76190476,7.998 7.99801905,4.76190476 12,4.76190476 Z M12.0059048,7.04761905 C10.4984381,7.04761905 9.26860952,8.04310476 8.97020952,9.23809524 C8.92925541,9.37270793 8.96580934,9.51894044 9.06528253,9.61843089 C9.16475573,9.71792135 9.31095153,9.7544703 9.44552274,9.71349094 C9.58009395,9.67251159 9.6811291,9.56067636 9.70830476,9.42261905 C9.90687619,8.6273619 10.8444762,7.80952381 12.0059048,7.80952381 C12.5808952,7.80952381 13.1733524,8.0165619 13.6011429,8.36309524 C14.0289714,8.70966667 14.2856762,9.17460952 14.2856762,9.71428571 C14.2856762,10.3693181 14.1431238,10.6993181 13.9464,10.9523848 C13.749581,11.2054514 13.4669143,11.3942895 13.1190095,11.6428629 C12.7711048,11.8914343 12.3765714,12.2103676 12.0892571,12.7440438 C11.8019619,13.277739 11.6249524,14.005301 11.6249524,15.0476248 C11.6304155,15.2541513 11.7993632,15.4187333 12.0059048,15.4187333 C12.2124464,15.4187333 12.381394,15.2541513 12.3868571,15.0476248 C12.3868571,14.0899486 12.5433524,13.5020248 12.7559238,13.1071486 C12.9684762,12.7122724 13.2409143,12.4895295 13.5594857,12.2619105 C13.8780952,12.0342914 14.2504381,11.8124057 14.5535238,11.4226133 C14.8566286,11.0328229 15.047581,10.4878324 15.047581,9.71428571 C15.047581,8.92062857 14.6429143,8.2368 14.0713905,7.77380952 C13.4997905,7.31081905 12.7624381,7.04761905 12.0059048,7.04761905 L12.0059048,7.04761905 Z M12.0059048,15.8095295 C11.6901905,15.8095295 11.4344762,16.0653581 11.4344762,16.3809581 C11.4344762,16.6965581 11.6901905,16.9523867 12.0059048,16.9523867 C12.3216381,16.9523867 12.5773333,16.6965581 12.5773333,16.3809581 C12.5773333,16.0653581 12.3216381,15.8095295 12.0059048,15.8095295 Z" id="Shape" fill="#808080" fill-rule="nonzero"></path>
            </g>
        </g>
    </g>
</svg>